HIERARCHY
ROOT Hips
{
  OFFSET -2.9740628571428576 95.22824285714285 -3.405862857142857
  CHANNELS 6 Xposition Zposition Yposition Zrotation Xrotation Yrotation
  JOINT LeftUpLeg
  {
    OFFSET 8.64259 1.9539799999999998 -2.3883499999999995
    CHANNELS 3 Zrotation Xrotation Yrotation
    JOINT LeftLeg
    {
      OFFSET 43.770199999999996 0.0 0.0
      CHANNELS 3 Zrotation Xrotation Yrotation
      JOINT LeftFoot
      {
        OFFSET 40.62380000000001 0.0 0.0
        CHANNELS 3 Zrotation Xrotation Yrotation
        JOINT LeftToeBase
        {
          OFFSET 12.724199999999998 0.0 0.0
          CHANNELS 3 Zrotation Xrotation Yrotation
          End Site
          {
            OFFSET 0.0 0.0 0.0
          }
        }
      }
    }
  }
  JOINT RightUpLeg
  {
    OFFSET -8.2249 1.9539799999999998 -2.59336
    CHANNELS 3 Zrotation Xrotation Yrotation
    JOINT RightLeg
    {
      OFFSET 43.56529999999999 0.0 0.0
      CHANNELS 3 Zrotation Xrotation Yrotation
      JOINT RightFoot
      {
        OFFSET 40.62380000000001 0.0 0.0
        CHANNELS 3 Zrotation Xrotation Yrotation
        JOINT RightToeBase
        {
          OFFSET 12.724199999999998 0.0 0.0
          CHANNELS 3 Zrotation Xrotation Yrotation
          End Site
          {
            OFFSET 0.0 0.0 0.0
          }
        }
      }
    }
  }
  JOINT Spine
  {
    OFFSET 0.16583 0.8771399999999999 6.61349
    CHANNELS 3 Zrotation Xrotation Yrotation
    JOINT Spine1
    {
      OFFSET 7.389628571428571 2e-05 0.0
      CHANNELS 3 Zrotation Xrotation Yrotation
      JOINT Spine2
      {
        OFFSET 11.944500000000001 1e-05 0.0
        CHANNELS 3 Zrotation Xrotation Yrotation
        JOINT Spine3
        {
          OFFSET 14.725400000000004 4e-05 0.0
          CHANNELS 3 Zrotation Xrotation Yrotation
          JOINT Spine4
          {
            OFFSET 10.9679 0.0 0.0
            CHANNELS 3 Zrotation Xrotation Yrotation
            JOINT RightShoulder
            {
              OFFSET 2.46616 -1.6653 3.69651
              CHANNELS 3 Zrotation Xrotation Yrotation
              JOINT RightArm
              {
                OFFSET 13.001199999999999 0.0 0.0
                CHANNELS 3 Zrotation Xrotation Yrotation
                JOINT RightForeArm
                {
                  OFFSET 28.784799999999997 2e-05 0.0
                  CHANNELS 3 Zrotation Xrotation Yrotation
                  JOINT RightHand
                  {
                    OFFSET 26.568800000000003 2e-05 0.0
                    CHANNELS 3 Zrotation Xrotation Yrotation
                    JOINT RightHandMiddle1
                    {
                      OFFSET 8.03675 -0.8865800000000001 0.7278700000000001
                      CHANNELS 3 Zrotation Xrotation Yrotation
                      JOINT RightHandMiddle2
                      {
                        OFFSET 2.7883299999999993 0.0 0.0
                        CHANNELS 3 Zrotation Xrotation Yrotation
                        JOINT RightHandMiddle3
                        {
                          OFFSET 2.4115500000000005 0.0 0.0
                          CHANNELS 3 Zrotation Xrotation Yrotation
                          End Site
                          {
                            OFFSET 0.0 0.0 0.0
                          }
                        }
                      }
                    }
                    JOINT RightHandRing1
                    {
                      OFFSET 7.979660000000002 -0.8867700000000002 -1.00486
                      CHANNELS 3 Zrotation Xrotation Yrotation
                      JOINT RightHandRing2
                      {
                        OFFSET 2.8636799999999996 0.0 0.0
                        CHANNELS 3 Zrotation Xrotation Yrotation
                        JOINT RightHandRing3
                        {
                          OFFSET 2.11079 0.0 0.0
                          CHANNELS 3 Zrotation Xrotation Yrotation
                          End Site
                          {
                            OFFSET 0.0 0.0 0.0
                          }
                        }
                      }
                    }
                    JOINT RightHandPinky1
                    {
                      OFFSET 8.03707 -0.8875299999999999 -2.6069600000000004
                      CHANNELS 3 Zrotation Xrotation Yrotation
                      JOINT RightHandPinky2
                      {
                        OFFSET 1.8462757142857142 0.0 0.0
                        CHANNELS 3 Zrotation Xrotation Yrotation
                        JOINT RightHandPinky3
                        {
                          OFFSET 1.8843400000000001 0.0 0.0
                          CHANNELS 3 Zrotation Xrotation Yrotation
                          End Site
                          {
                            OFFSET 0.0 0.0 0.0
                          }
                        }
                      }
                    }
                    JOINT RightHandIndex1
                    {
                      OFFSET 7.92262 -0.8855000000000002 2.31175
                      CHANNELS 3 Zrotation Xrotation Yrotation
                      JOINT RightHandIndex2
                      {
                        OFFSET 2.63761 0.0 0.0
                        CHANNELS 3 Zrotation Xrotation Yrotation
                        JOINT RightHandIndex3
                        {
                          OFFSET 2.16656 0.0 0.0
                          CHANNELS 3 Zrotation Xrotation Yrotation
                          End Site
                          {
                            OFFSET 0.0 0.0 0.0
                          }
                        }
                      }
                    }
                    JOINT RightHandThumb1
                    {
                      OFFSET 3.4769 0.059800000000000006 2.8878899999999996
                      CHANNELS 3 Zrotation Xrotation Yrotation
                      JOINT RightHandThumb2
                      {
                        OFFSET 2.7768599999999997 0.00010000000000000002 -2e-05
                        CHANNELS 3 Zrotation Xrotation Yrotation
                        JOINT RightHandThumb3
                        {
                          OFFSET 2.420578571428571 -9e-05 0.0
                          CHANNELS 3 Zrotation Xrotation Yrotation
                          End Site
                          {
                            OFFSET 0.0 0.0 0.0
                          }
                        }
                      }
                    }
                  }
                }
              }
            }
            JOINT LeftShoulder
            {
              OFFSET 2.3803400000000003 -1.29275 -3.7523014285714282
              CHANNELS 3 Zrotation Xrotation Yrotation
              JOINT LeftArm
              {
                OFFSET 16.3182 5.9999999999999995e-05 0.0
                CHANNELS 3 Zrotation Xrotation Yrotation
                JOINT LeftForeArm
                {
                  OFFSET 27.090100000000003 0.0 0.0
                  CHANNELS 3 Zrotation Xrotation Yrotation
                  JOINT LeftHand
                  {
                    OFFSET 24.545099999999998 2e-05 0.0
                    CHANNELS 3 Zrotation Xrotation Yrotation
                    JOINT LeftHandMiddle1
                    {
                      OFFSET 9.218019999999997 0.66582 0.5455300000000002
                      CHANNELS 3 Zrotation Xrotation Yrotation
                      JOINT LeftHandMiddle2
                      {
                        OFFSET 2.66255 0.0 0.0
                        CHANNELS 3 Zrotation Xrotation Yrotation
                        JOINT LeftHandMiddle3
                        {
                          OFFSET 2.2804 0.0 0.0
                          CHANNELS 3 Zrotation Xrotation Yrotation
                          End Site
                          {
                            OFFSET 0.0 0.0 0.0
                          }
                        }
                      }
                    }
                    JOINT LeftHandRing1
                    {
                      OFFSET 9.247749999999998 0.66519 -1.1266999999999998
                      CHANNELS 3 Zrotation Xrotation Yrotation
                      JOINT LeftHandRing2
                      {
                        OFFSET 2.4704099999999998 0.0 -2e-05
                        CHANNELS 3 Zrotation Xrotation Yrotation
                        JOINT LeftHandRing3
                        {
                          OFFSET 2.2054000000000005 0.0 0.0
                          CHANNELS 3 Zrotation Xrotation Yrotation
                          End Site
                          {
                            OFFSET 0.0 0.0 0.0
                          }
                        }
                      }
                    }
                    JOINT LeftHandPinky1
                    {
                      OFFSET 9.35383857142857 0.66301 -2.7233200000000006
                      CHANNELS 3 Zrotation Xrotation Yrotation
                      JOINT LeftHandPinky2
                      {
                        OFFSET 1.63407 0.0 0.0
                        CHANNELS 3 Zrotation Xrotation Yrotation
                        JOINT LeftHandPinky3
                        {
                          OFFSET 1.71176 0.0 0.0
                          CHANNELS 3 Zrotation Xrotation Yrotation
                          End Site
                          {
                            OFFSET 0.0 0.0 0.0
                          }
                        }
                      }
                    }
                    JOINT LeftHandIndex1
                    {
                      OFFSET 8.731608571428572 0.6758999999999998 2.0680099999999997
                      CHANNELS 3 Zrotation Xrotation Yrotation
                      JOINT LeftHandIndex2
                      {
                        OFFSET 2.6668899999999995 0.0 0.0
                        CHANNELS 3 Zrotation Xrotation Yrotation
                        JOINT LeftHandIndex3
                        {
                          OFFSET 2.12946 0.0 2e-05
                          CHANNELS 3 Zrotation Xrotation Yrotation
                          End Site
                          {
                            OFFSET 0.0 0.0 0.0
                          }
                        }
                      }
                    }
                    JOINT LeftHandThumb1
                    {
                      OFFSET 4.967354285714285 -0.62265 3.3958599999999994
                      CHANNELS 3 Zrotation Xrotation Yrotation
                      JOINT LeftHandThumb2
                      {
                        OFFSET 2.15386 2e-05 0.0
                        CHANNELS 3 Zrotation Xrotation Yrotation
                        JOINT LeftHandThumb3
                        {
                          OFFSET 2.1951099999999997 -2.9999999999999997e-05 2e-05
                          CHANNELS 3 Zrotation Xrotation Yrotation
                          End Site
                          {
                            OFFSET 0.0 0.0 0.0
                          }
                        }
                      }
                    }
                  }
                }
              }
            }
            JOINT Neck
            {
              OFFSET 5.0226 -0.026629999999999994 0.0
              CHANNELS 3 Zrotation Xrotation Yrotation
              JOINT Head
              {
                OFFSET 6.693637142857143 2.9999999999999997e-05 0.0
                CHANNELS 3 Zrotation Xrotation Yrotation
                End Site
                {
                  OFFSET 0.0 0.0 0.0
                }
              }
            }
          }
        }
      }
    }
  }
}
MOTION
Frames: 4
Frame Time: 0.03333333
0.0 4.440892098500626e-16 96.9808 116.904 -89.999 116.95100000000001 -171.737 2.77759 93.2877 -8.49298 8.262319999999999 -0.03604689999999999 63.148 2.03057 1.0787799999999999 28.7808 5.05434e-06 7.122389999999999e-06 179.139 1.9059200000000018 88.5806 -7.5864699999999985 -0.7597360000000002 -0.04543449999999993 62.7206 -1.2591199999999998 -0.6384270000000001 28.7808 1.23702e-05 2.70291e-05 0.004730740000000011 6.33927 -90.0467 14.1954 0.0024903899999999535 0.002230320000000008 2.5244400000000002 0.0025866299999999787 0.0021118100000000473 -20.0107 0.0017019400000000129 0.0028754999999999753 0.0019290000000000695 0.0017034000000000216 0.0028729000000000116 100.902 -18.4361 -85.3089 5.9475 46.09119999999999 -25.4535 -3.64669 0.5689690000000001 -1.6008700000000005 -5.37983 -0.3200219999999998 -0.016241200000000067 -89.4043 88.9709 89.0941 -0.060488400000000005 1.20678e-05 -2.525880000000002e-07 -0.0639205 -4.6722800000000004e-06 -3.04724e-07 -89.3952 88.9811 89.085 -1.1574200000000001 -4.4598300000000005e-06 3.1840999999999995e-07 2.576 -4.316280000000001e-06 -7.227549999999999e-07 -88.8579 89.3579 88.5477 -1.14578 -3.863e-06 0.00018144900000000003 1.1457700000000002 -5.384529999999998e-07 -2.80785e-07 -89.42299999999999 88.9487 89.1127 0.409285 1.2102400000000001e-05 0.000523017 -0.6366 -4.36592e-06 -4.3780700000000005e-07 104.36399999999999 40.5023 -88.8246 -7.66903 0.186175 -1.3504399999999999 -11.2634 3.7755099999999995e-06 6.456760000000001e-05 -78.816 -20.677 94.6544 7.732510000000001 -44.3101 -15.347999999999999 6.51727 45.2871 -8.863259999999997 -2.0624399999999987 -0.07796609999999982 0.27054000000000045 -91.1873 -87.8289 -89.9988 3.4088800000000004 6.4161e-06 0.00346145 -0.9548610000000001 -1.01382e-05 -5.344350000000004e-07 -91.1871 -89.4015 -89.9985 2.85636 -4.54402e-06 0.00259035 -3.1684400000000004 -4.701809999999999e-06 -8.670529999999999e-07 88.8084 -89.7171 89.9969 2.54481 -6.229359999999997e-07 0.00263825 -2.54482 -6.18229e-06 -2.93957e-07 -91.1883 -86.1973 -89.9998 6.1310400000000005 1.1417099999999999e-06 0.006474 -2.04542 -1.2527299999999999e-06 3.897090000000001e-07 -101.949 -40.7242 -90.0694 10.0172 -4.5386800000000006e-06 -2.91778e-06 -2.6697599999999997 -5.16821e-07 -2.54556e-06 1.75087 -0.010818699999999959 -0.017996300000000076 -7.413930000000001 -0.008216390000000073 0.0061150300000000005
-0.01290000000000191 0.03110000000000257 96.9671 -115.60600000000001 -89.9905 -115.56899999999999 -171.731 2.762080000000001 93.285 -8.52272 8.26954 -0.037169099999999955 63.256 1.9984099999999998 1.06025 28.7808 5.05434e-06 7.122389999999999e-06 179.148 2.2985499999999988 88.5739 -8.44555 -0.8324090000000002 -0.04543530000000001 63.0976 -1.2819699999999998 -0.657292 28.7808 1.23702e-05 2.70291e-05 0.01777010000000001 6.32395 -90.0169 14.225999999999999 0.03950049999999994 0.03568769999999999 2.5550099999999993 0.041030800000000034 0.03389830000000005 -19.9801 0.026939799999999958 0.04590549999999993 0.03250030000000015 0.02694669999999999 0.045906400000000014 100.969 -18.5101 -85.1367 6.00924 46.07379999999999 -25.4897 -3.6885999999999997 0.5689709999999999 -1.5932699999999969 -5.37983 -0.3200219999999998 -0.016241200000000067 -89.4043 88.9709 89.0941 -0.060488400000000005 1.20678e-05 -2.525880000000002e-07 -0.0639205 -4.6722800000000004e-06 -3.04724e-07 -89.3952 88.9811 89.085 -1.1574200000000001 -4.4598300000000005e-06 3.1840999999999995e-07 2.576 -4.316280000000001e-06 -7.227549999999999e-07 -88.8579 89.3579 88.5477 -1.14578 -3.863e-06 0.00018144900000000003 1.1457700000000002 -5.384529999999998e-07 -2.80785e-07 -89.42299999999999 88.9487 89.1127 0.409285 1.2102400000000001e-05 0.000523017 -0.6366 -4.36592e-06 -4.3780700000000005e-07 104.36399999999999 40.5023 -88.8246 -7.66903 0.186175 -1.3504399999999999 -11.2634 3.7755099999999995e-06 6.456760000000001e-05 -78.9331 -20.2333 94.3632 7.71435 -44.333999999999996 -15.296800000000001 6.53851 45.3717 -8.834919999999997 -1.8560400000000001 -0.06954919999999976 0.2826159999999991 -91.1873 -87.8289 -89.9988 3.4088800000000004 6.4161e-06 0.00346145 -0.9548610000000001 -1.01382e-05 -5.344350000000004e-07 -91.1871 -89.4015 -89.9985 2.85636 -4.54402e-06 0.00259035 -3.1684400000000004 -4.701809999999999e-06 -8.670529999999999e-07 88.8084 -89.7171 89.9969 2.54481 -6.229359999999997e-07 0.00263825 -2.54482 -6.18229e-06 -2.93957e-07 -91.1883 -86.1973 -89.9998 6.1310400000000005 1.1417099999999999e-06 0.006474 -2.04542 -1.2527299999999999e-06 3.897090000000001e-07 -101.949 -40.7242 -90.0694 10.0172 -4.5386800000000006e-06 -2.91778e-06 -2.6697599999999997 -5.16821e-07 -2.54556e-06 1.7084099999999998 -0.17303000000000002 -0.28956300000000024 -7.456189999999999 -0.13122499999999993 0.09754439999999999
-0.034950000000002035 0.06300000000000283 96.9667 -13.447800000000003 -89.9607 -13.3972 -171.71099999999998 2.7814300000000003 93.3129 -8.512600000000003 8.25201 -0.05337329999999996 63.2821 2.03163 1.07948 28.7808 5.05434e-06 7.122389999999999e-06 179.162 2.3074399999999997 88.6017 -8.4191 -0.8276649999999997 -0.04543530000000001 63.0866 -1.3088200000000003 -0.672698 28.7808 1.23702e-05 2.70291e-05 0.014576100000000008 6.31027 -90.0164 14.2534 0.03311609999999998 0.03583539999999996 2.58241 0.03465240000000003 0.034411300000000034 -19.9527 0.020799400000000023 0.044123599999999985 0.05991459999999993 0.020805700000000038 0.04412499999999997 100.96799999999999 -18.5632 -85.1513 5.8994 46.06 -25.4363 -3.6069099999999987 0.568977 -1.5691899999999919 -5.37983 -0.3200219999999998 -0.016241200000000067 -89.4043 88.9709 89.0941 -0.060488400000000005 1.20678e-05 -2.525880000000002e-07 -0.0639205 -4.6722800000000004e-06 -3.04724e-07 -89.3952 88.9811 89.085 -1.1574200000000001 -4.4598300000000005e-06 3.1840999999999995e-07 2.576 -4.316280000000001e-06 -7.227549999999999e-07 -88.8579 89.3579 88.5477 -1.14578 -3.863e-06 0.00018144900000000003 1.1457700000000002 -5.384529999999998e-07 -2.80785e-07 -89.42299999999999 88.9487 89.1127 0.409285 1.2102400000000001e-05 0.000523017 -0.6366 -4.36592e-06 -4.3780700000000005e-07 104.36399999999999 40.5023 -88.8246 -7.66903 0.186175 -1.3504399999999999 -11.2634 3.7755099999999995e-06 6.456760000000001e-05 -78.8948 -20.1259 94.4332 7.700030000000002 -44.3609 -15.3951 6.643260000000001 45.398 -8.920830000000002 -2.06076 -0.07800429999999992 0.23173899999999925 -91.1873 -87.8289 -89.9988 3.4088800000000004 6.4161e-06 0.00346145 -0.9548610000000001 -1.01382e-05 -5.344350000000004e-07 -91.1871 -89.4015 -89.9985 2.85636 -4.54402e-06 0.00259035 -3.1684400000000004 -4.701809999999999e-06 -8.670529999999999e-07 88.8084 -89.7171 89.9969 2.54481 -6.229359999999997e-07 0.00263825 -2.54482 -6.18229e-06 -2.93957e-07 -91.1883 -86.1973 -89.9998 6.1310400000000005 1.1417099999999999e-06 0.006474 -2.04542 -1.2527299999999999e-06 3.897090000000001e-07 -101.949 -40.7242 -90.0694 10.0172 -4.5386800000000006e-06 -2.91778e-06 -2.6697599999999997 -5.16821e-07 -2.54556e-06 1.7329499999999998 -0.168744 -0.3068939999999998 -7.425669999999999 -0.1254630000000001 0.09228510000000001
-0.043710000000004356 0.09260000000000135 96.9749 23.4955 -89.9158 23.549799999999998 -171.72400000000002 2.792909999999999 93.3187 -8.46379 8.26978 -0.04415720000000001 63.1548 2.03247 1.07938 28.7808 5.05434e-06 7.122389999999999e-06 179.157 2.045210000000001 88.6079 -7.844160000000002 -0.7865250000000001 -0.0454348 62.8273 -1.3019599999999998 -0.664768 28.7808 1.23702e-05 2.70291e-05 0.0033405200000000135 6.29104 -90.0277 14.2918 0.007474729999999985 0.030022499999999952 2.62088 0.008797869999999985 0.032342800000000005 -19.9143 -0.0018940100000000015 0.030878200000000022 0.09837240000000014 -0.0018896699999999544 0.03088239999999992 100.956 -18.4523 -85.1783 6.0309300000000015 46.0162 -25.4393 -3.6309599999999995 0.5689790000000001 -1.5631100000000089 -5.37983 -0.3200219999999998 -0.016241200000000067 -89.4043 88.9709 89.0941 -0.060488400000000005 1.20678e-05 -2.525880000000002e-07 -0.0639205 -4.6722800000000004e-06 -3.04724e-07 -89.3952 88.9811 89.085 -1.1574200000000001 -4.4598300000000005e-06 3.1840999999999995e-07 2.576 -4.316280000000001e-06 -7.227549999999999e-07 -88.8579 89.3579 88.5477 -1.14578 -3.863e-06 0.00018144900000000003 1.1457700000000002 -5.384529999999998e-07 -2.80785e-07 -89.42299999999999 88.9487 89.1127 0.409285 1.2102400000000001e-05 0.000523017 -0.6366 -4.36592e-06 -4.3780700000000005e-07 104.36399999999999 40.5023 -88.8246 -7.66903 0.186175 -1.3504399999999999 -11.2634 3.7755099999999995e-06 6.456760000000001e-05 -78.813 -20.1176 94.6293 7.624770000000002 -44.3298 -15.5613 6.66615 45.4985 -8.933979999999998 -2.14257 -0.08148950000000021 0.09881200000000057 -91.1873 -87.8289 -89.9988 3.4088800000000004 6.4161e-06 0.00346145 -0.9548610000000001 -1.01382e-05 -5.344350000000004e-07 -91.1871 -89.4015 -89.9985 2.85636 -4.54402e-06 0.00259035 -3.1684400000000004 -4.701809999999999e-06 -8.670529999999999e-07 88.8084 -89.7171 89.9969 2.54481 -6.229359999999997e-07 0.00263825 -2.54482 -6.18229e-06 -2.93957e-07 -91.1883 -86.1973 -89.9998 6.1310400000000005 1.1417099999999999e-06 0.006474 -2.04542 -1.2527299999999999e-06 3.897090000000001e-07 -101.949 -40.7242 -90.0694 10.0172 -4.5386800000000006e-06 -2.91778e-06 -2.6697599999999997 -5.16821e-07 -2.54556e-06 1.8396400000000002 -0.14697800000000005 -0.19833899999999982 -7.60487 -0.1182129999999999 0.0776578
